<svg width="32" height="24" viewBox="0 0 32 24" fill="none" xmlns="http://www.w3.org/2000/svg">
<path id="Vector" d="M26.1818 7.2V4.8H23.2727V2.4H26.1818V0H29.0909V2.4H32V4.8H29.0909V7.2H26.1818ZM14.5455 19.8C16.3636 19.8 17.9093 19.2748 19.1825 18.2244C20.4558 17.174 21.0919 15.8992 21.0909 14.4C21.0909 12.9 20.4543 11.6248 19.1811 10.5744C17.9079 9.524 16.3627 8.9992 14.5455 9C12.7273 9 11.1816 9.5252 9.90837 10.5756C8.63515 11.626 7.99903 12.9008 8 14.4C8 15.9 8.63661 17.1752 9.90982 18.2256C11.183 19.276 12.7282 19.8008 14.5455 19.8ZM14.5455 17.4C13.5273 17.4 12.6667 17.11 11.9636 16.53C11.2606 15.95 10.9091 15.24 10.9091 14.4C10.9091 13.56 11.2606 12.85 11.9636 12.27C12.6667 11.69 13.5273 11.4 14.5455 11.4C15.5636 11.4 16.4242 11.69 17.1273 12.27C17.8303 12.85 18.1818 13.56 18.1818 14.4C18.1818 15.24 17.8303 15.95 17.1273 16.53C16.4242 17.11 15.5636 17.4 14.5455 17.4ZM2.90909 24C2.10909 24 1.424 23.7648 0.853821 23.2944C0.283639 22.824 -0.000967227 22.2592 2.46952e-06 21.6V7.2C2.46952e-06 6.54 0.285093 5.9748 0.855275 5.5044C1.42546 5.034 2.11006 4.7992 2.90909 4.8H7.49091L10.1818 2.4H20.3636V7.2H23.2727V9.6H29.0909V21.6C29.0909 22.26 28.8058 22.8252 28.2356 23.2956C27.6655 23.766 26.9809 24.0008 26.1818 24H2.90909Z" fill="black"/>
</svg>
